<svg xmlns="http://www.w3.org/2000/svg" viewBox="0 0 64 64" fill="none">
  <path d="M50 14C33 14 18 27 18 44c0 3 .5 6 1.8 8.7 2.8 1.3 5.9 1.9 9.2 1.9 17 0 30-13 30-30 0-3.3-.6-6.4-1.9-9.2C56.4 14.5 53.3 14 50 14z" stroke="#f2f6ef" stroke-width="4" stroke-linecap="round" stroke-linejoin="round"/>
  <path d="M22 48c8-1 14-4 20-10 6-6 9-12 10-20" stroke="#f2f6ef" stroke-width="4" stroke-linecap="round" stroke-linejoin="round"/>
  <path d="M27 33c3 3 5 7 6 12" stroke="#f2f6ef" stroke-width="3" stroke-linecap="round" stroke-linejoin="round"/>
</svg>
